<mxfile host="app.diagrams.net" modified="2023-10-04T15:30:54.154Z" agent="Mozilla/5.0 (X11; Linux x86_64; rv:109.0) Gecko/20100101 Firefox/118.0" etag="S-qOIWvfNHiaQwEyHFgE" version="22.0.0" type="device">
  <diagram name="Page-1" id="hy0hKMLI7a7NcTLo72GK">
    <mxGraphModel dx="574" dy="359" grid="1" gridSize="10" guides="1" tooltips="1" connect="1" arrows="1" fold="1" page="1" pageScale="1" pageWidth="850" pageHeight="1100" math="0" shadow="0">
      <root>
        <mxCell id="0" />
        <mxCell id="1" parent="0" />
        <mxCell id="PNg0fsPJ7tOBh_5El1u8-7" style="edgeStyle=orthogonalEdgeStyle;rounded=0;orthogonalLoop=1;jettySize=auto;html=1;" parent="1" source="PNg0fsPJ7tOBh_5El1u8-1" target="PNg0fsPJ7tOBh_5El1u8-2" edge="1">
          <mxGeometry relative="1" as="geometry">
            <Array as="points">
              <mxPoint x="425" y="250" />
              <mxPoint x="313" y="250" />
            </Array>
          </mxGeometry>
        </mxCell>
        <mxCell id="PNg0fsPJ7tOBh_5El1u8-8" style="edgeStyle=orthogonalEdgeStyle;rounded=0;orthogonalLoop=1;jettySize=auto;html=1;" parent="1" source="PNg0fsPJ7tOBh_5El1u8-1" target="PNg0fsPJ7tOBh_5El1u8-5" edge="1">
          <mxGeometry relative="1" as="geometry">
            <Array as="points">
              <mxPoint x="425" y="280" />
              <mxPoint x="425" y="280" />
            </Array>
          </mxGeometry>
        </mxCell>
        <mxCell id="PNg0fsPJ7tOBh_5El1u8-9" style="edgeStyle=orthogonalEdgeStyle;rounded=0;orthogonalLoop=1;jettySize=auto;html=1;" parent="1" source="PNg0fsPJ7tOBh_5El1u8-1" target="PNg0fsPJ7tOBh_5El1u8-3" edge="1">
          <mxGeometry relative="1" as="geometry">
            <Array as="points">
              <mxPoint x="425" y="250" />
              <mxPoint x="533" y="250" />
            </Array>
          </mxGeometry>
        </mxCell>
        <mxCell id="PNg0fsPJ7tOBh_5El1u8-1" value="" style="sketch=0;pointerEvents=1;shadow=0;dashed=0;html=1;strokeColor=none;fillColor=#434445;aspect=fixed;labelPosition=center;verticalLabelPosition=bottom;verticalAlign=top;align=center;outlineConnect=0;shape=mxgraph.vvd.folder;" parent="1" vertex="1">
          <mxGeometry x="392" y="180" width="65.79" height="50" as="geometry" />
        </mxCell>
        <mxCell id="PNg0fsPJ7tOBh_5El1u8-10" style="edgeStyle=orthogonalEdgeStyle;rounded=0;orthogonalLoop=1;jettySize=auto;html=1;fillColor=#f8cecc;strokeColor=#b85450;" parent="1" source="PNg0fsPJ7tOBh_5El1u8-2" target="PNg0fsPJ7tOBh_5El1u8-4" edge="1">
          <mxGeometry relative="1" as="geometry">
            <Array as="points">
              <mxPoint x="313" y="370" />
              <mxPoint x="263" y="370" />
            </Array>
          </mxGeometry>
        </mxCell>
        <mxCell id="PNg0fsPJ7tOBh_5El1u8-11" style="edgeStyle=orthogonalEdgeStyle;rounded=0;orthogonalLoop=1;jettySize=auto;html=1;fillColor=#f8cecc;strokeColor=#b85450;" parent="1" source="PNg0fsPJ7tOBh_5El1u8-2" target="PNg0fsPJ7tOBh_5El1u8-6" edge="1">
          <mxGeometry relative="1" as="geometry">
            <Array as="points">
              <mxPoint x="313" y="370" />
              <mxPoint x="379" y="370" />
            </Array>
          </mxGeometry>
        </mxCell>
        <mxCell id="PNg0fsPJ7tOBh_5El1u8-2" value="" style="sketch=0;pointerEvents=1;shadow=0;dashed=0;html=1;strokeColor=#b85450;fillColor=#f8cecc;aspect=fixed;labelPosition=center;verticalLabelPosition=bottom;verticalAlign=top;align=center;outlineConnect=0;shape=mxgraph.vvd.folder;" parent="1" vertex="1">
          <mxGeometry x="280" y="300" width="65.79" height="50" as="geometry" />
        </mxCell>
        <mxCell id="PNg0fsPJ7tOBh_5El1u8-3" value="" style="sketch=0;pointerEvents=1;shadow=0;dashed=0;html=1;strokeColor=#6c8ebf;fillColor=#dae8fc;aspect=fixed;labelPosition=center;verticalLabelPosition=bottom;verticalAlign=top;align=center;outlineConnect=0;shape=mxgraph.vvd.folder;" parent="1" vertex="1">
          <mxGeometry x="500" y="300" width="65.79" height="50" as="geometry" />
        </mxCell>
        <mxCell id="PNg0fsPJ7tOBh_5El1u8-4" value="" style="sketch=0;pointerEvents=1;shadow=0;dashed=0;html=1;strokeColor=#b85450;fillColor=#f8cecc;aspect=fixed;labelPosition=center;verticalLabelPosition=bottom;verticalAlign=top;align=center;outlineConnect=0;shape=mxgraph.vvd.folder;" parent="1" vertex="1">
          <mxGeometry x="230" y="420" width="65.79" height="50" as="geometry" />
        </mxCell>
        <mxCell id="PNg0fsPJ7tOBh_5El1u8-5" value="" style="sketch=0;pointerEvents=1;shadow=0;dashed=0;html=1;strokeColor=none;fillColor=#434445;aspect=fixed;labelPosition=center;verticalLabelPosition=bottom;verticalAlign=top;align=center;outlineConnect=0;shape=mxgraph.vvd.folder;" parent="1" vertex="1">
          <mxGeometry x="390" y="300" width="65.79" height="50" as="geometry" />
        </mxCell>
        <mxCell id="PNg0fsPJ7tOBh_5El1u8-6" value="" style="sketch=0;pointerEvents=1;shadow=0;dashed=0;html=1;strokeColor=#b85450;fillColor=#f8cecc;aspect=fixed;labelPosition=center;verticalLabelPosition=bottom;verticalAlign=top;align=center;outlineConnect=0;shape=mxgraph.vvd.folder;" parent="1" vertex="1">
          <mxGeometry x="345.79" y="420" width="65.79" height="50" as="geometry" />
        </mxCell>
        <mxCell id="PNg0fsPJ7tOBh_5El1u8-12" value="" style="sketch=0;pointerEvents=1;shadow=0;dashed=0;html=1;strokeColor=#b85450;fillColor=#f8cecc;labelPosition=center;verticalLabelPosition=bottom;verticalAlign=top;outlineConnect=0;align=center;shape=mxgraph.office.security.lock_protected;" parent="1" vertex="1">
          <mxGeometry x="240" y="280" width="28" height="37" as="geometry" />
        </mxCell>
        <mxCell id="PNg0fsPJ7tOBh_5El1u8-13" value="" style="sketch=0;pointerEvents=1;shadow=0;dashed=0;html=1;strokeColor=#6c8ebf;fillColor=#dae8fc;labelPosition=center;verticalLabelPosition=bottom;verticalAlign=top;outlineConnect=0;align=center;shape=mxgraph.office.security.lock_protected;" parent="1" vertex="1">
          <mxGeometry x="575" y="281" width="28" height="37" as="geometry" />
        </mxCell>
        <mxCell id="nTprPxtbZl0r8x4hxP0g-26" value="&lt;div&gt;Asset&lt;/div&gt;" style="shape=card;whiteSpace=wrap;html=1;fontSize=9;aspect=fixed;fillColor=#f8cecc;strokeColor=#b85450;" vertex="1" parent="1">
          <mxGeometry x="185.74999999999997" y="536" width="44.29" height="62" as="geometry" />
        </mxCell>
        <mxCell id="nTprPxtbZl0r8x4hxP0g-27" value="&lt;div&gt;Asset&lt;/div&gt;" style="shape=card;whiteSpace=wrap;html=1;fontSize=9;aspect=fixed;fillColor=#f8cecc;strokeColor=#b85450;" vertex="1" parent="1">
          <mxGeometry x="295.75" y="536" width="44.29" height="62" as="geometry" />
        </mxCell>
        <mxCell id="nTprPxtbZl0r8x4hxP0g-29" style="edgeStyle=orthogonalEdgeStyle;rounded=0;orthogonalLoop=1;jettySize=auto;html=1;entryX=0;entryY=0;entryDx=37.144999999999996;entryDy=0;entryPerimeter=0;fillColor=#f8cecc;strokeColor=#b85450;" edge="1" parent="1" source="PNg0fsPJ7tOBh_5El1u8-4" target="nTprPxtbZl0r8x4hxP0g-26">
          <mxGeometry relative="1" as="geometry">
            <Array as="points">
              <mxPoint x="263" y="490" />
              <mxPoint x="223" y="490" />
            </Array>
          </mxGeometry>
        </mxCell>
        <mxCell id="nTprPxtbZl0r8x4hxP0g-30" style="edgeStyle=orthogonalEdgeStyle;rounded=0;orthogonalLoop=1;jettySize=auto;html=1;entryX=0.773;entryY=0.016;entryDx=0;entryDy=0;entryPerimeter=0;fillColor=#f8cecc;strokeColor=#b85450;" edge="1" parent="1" source="PNg0fsPJ7tOBh_5El1u8-4" target="nTprPxtbZl0r8x4hxP0g-27">
          <mxGeometry relative="1" as="geometry">
            <Array as="points">
              <mxPoint x="263" y="490" />
              <mxPoint x="330" y="490" />
            </Array>
          </mxGeometry>
        </mxCell>
        <mxCell id="nTprPxtbZl0r8x4hxP0g-31" value="&lt;div&gt;Asset&lt;/div&gt;" style="shape=card;whiteSpace=wrap;html=1;fontSize=9;aspect=fixed;fillColor=#dae8fc;strokeColor=#6c8ebf;" vertex="1" parent="1">
          <mxGeometry x="510.75" y="408" width="44.29" height="62" as="geometry" />
        </mxCell>
        <mxCell id="nTprPxtbZl0r8x4hxP0g-32" style="edgeStyle=orthogonalEdgeStyle;rounded=0;orthogonalLoop=1;jettySize=auto;html=1;entryX=0.688;entryY=-0.042;entryDx=0;entryDy=0;entryPerimeter=0;fillColor=#dae8fc;strokeColor=#6c8ebf;" edge="1" parent="1" source="PNg0fsPJ7tOBh_5El1u8-3" target="nTprPxtbZl0r8x4hxP0g-31">
          <mxGeometry relative="1" as="geometry" />
        </mxCell>
      </root>
    </mxGraphModel>
  </diagram>
</mxfile>
